<svg id="visual" viewBox="0 0 900 600" width="900" height="600" xmlns="http://www.w3.org/2000/svg" xmlns:xlink="http://www.w3.org/1999/xlink" version="1.1"><g transform="translate(-28.439283790772592 613.3964602877014)"><path d="M102.9 -173.8C143.3 -154.9 192.9 -147.5 227.3 -120.4C261.7 -93.3 280.8 -46.7 281.6 0.4C282.3 47.5 264.5 95 231.1 123.7C197.7 152.4 148.6 162.4 107.5 173.8C66.3 185.2 33.2 198.1 -6.1 208.6C-45.3 219.2 -90.7 227.4 -125.7 212.5C-160.8 197.5 -185.6 159.5 -200.6 120.3C-215.6 81 -220.8 40.5 -223.4 -1.5C-226 -43.5 -226 -87 -212.4 -128.7C-198.9 -170.4 -171.7 -210.4 -134 -230.8C-96.3 -251.2 -48.2 -252.1 -8.5 -237.4C31.3 -222.8 62.5 -192.6 102.9 -173.8" fill="#4D4C7D"></path></g></svg>